<svg xmlns="http://www.w3.org/2000/svg" width="920" height="240" viewBox="0 0 920 240" role="img" aria-label="Fee Forensics logo">
  <defs>
    <linearGradient id="g" x1="0" y1="0" x2="1" y2="1">
      <stop offset="0" stop-color="#2DD4BF"/>
      <stop offset="1" stop-color="#60A5FA"/>
    </linearGradient>
    <filter id="shadow" x="-20%" y="-20%" width="140%" height="140%">
      <feDropShadow dx="0" dy="8" stdDeviation="10" flood-color="#0B1220" flood-opacity="0.25"/>
    </filter>
  </defs>

  <rect x="0" y="0" width="920" height="240" rx="28" fill="#0B1220"/>
  <g filter="url(#shadow)">
    <rect x="28" y="28" width="864" height="184" rx="24" fill="#0F1B33" stroke="#1F2A44" />
  </g>

  <!-- Icon -->
  <g transform="translate(72,60)">
    <rect x="0" y="0" width="120" height="120" rx="26" fill="url(#g)"/>
    <path d="M32 34h56c6 0 10 4 10 10v54c0 6-4 10-10 10H32c-6 0-10-4-10-10V44c0-6 4-10 10-10Z"
          fill="#0B1220" opacity="0.92"/>
    <path d="M38 52h44M38 68h52M38 84h36" stroke="#93C5FD" stroke-width="6" stroke-linecap="round"/>
    <circle cx="88" cy="92" r="16" fill="#0B1220" opacity="0.92" />
    <path d="M80 92l6 6 16-18" fill="none" stroke="#2DD4BF" stroke-width="6" stroke-linecap="round" stroke-linejoin="round"/>
  </g>

  <!-- Wordmark -->
  <g transform="translate(220,78)">
    <text x="0" y="0" fill="#E5E7EB" font-family="ui-sans-serif, system-ui, -apple-system, Segoe UI, Roboto, Arial" font-size="44" font-weight="750">
      Fee Forensics
    </text>
    <text x="0" y="44" fill="#A7B0C3" font-family="ui-sans-serif, system-ui, -apple-system, Segoe UI, Roboto, Arial" font-size="20" font-weight="500">
      Statement fee &amp; interest audit agent
    </text>
    <g transform="translate(0,70)">
      <rect x="0" y="0" width="150" height="30" rx="15" fill="#111C35" stroke="#1F2A44"/>
      <text x="18" y="21" fill="#93C5FD" font-family="ui-sans-serif, system-ui, -apple-system, Segoe UI, Roboto, Arial" font-size="14" font-weight="650">
        CLI " Markdown
      </text>
      <rect x="164" y="0" width="170" height="30" rx="15" fill="#111C35" stroke="#1F2A44"/>
      <text x="182" y="21" fill="#2DD4BF" font-family="ui-sans-serif, system-ui, -apple-system, Segoe UI, Roboto, Arial" font-size="14" font-weight="650">
        Deterministic MVP
      </text>
    </g>
  </g>
</svg>
